<?xml version="1.0" encoding="UTF-8" standalone="no"?>
<!-- Created with Inkscape (http://www.inkscape.org/) -->

<svg
   width="640"
   height="360"
   viewBox="0 0 640 360"
   version="1.1"
   id="svg1"
   inkscape:version="1.3.2 (091e20e, 2023-11-25, custom)"
   sodipodi:docname="---BACKPACK---.svg"
   xml:space="preserve"
   xmlns:inkscape="http://www.inkscape.org/namespaces/inkscape"
   xmlns:sodipodi="http://sodipodi.sourceforge.net/DTD/sodipodi-0.dtd"
   xmlns="http://www.w3.org/2000/svg"
   xmlns:svg="http://www.w3.org/2000/svg"><sodipodi:namedview
     id="namedview1"
     pagecolor="#505050"
     bordercolor="#ffffff"
     borderopacity="1"
     inkscape:showpageshadow="false"
     inkscape:pageopacity="0"
     inkscape:pagecheckerboard="1"
     inkscape:deskcolor="#505050"
     inkscape:document-units="px"
     showguides="true"
     inkscape:lockguides="true"
     showborder="true"
     borderlayer="true"
     labelstyle="default"
     shape-rendering="auto"
     inkscape:clip-to-page="false"
     inkscape:zoom="1.8694136"
     inkscape:cx="128.91744"
     inkscape:cy="259.70711"
     inkscape:window-width="1366"
     inkscape:window-height="715"
     inkscape:window-x="262"
     inkscape:window-y="1072"
     inkscape:window-maximized="1"
     inkscape:current-layer="layer3" /><defs
     id="defs1"><clipPath
       clipPathUnits="userSpaceOnUse"
       id="clipPath33"><g
         inkscape:label="Clip"
         id="use33" /></clipPath><clipPath
       clipPathUnits="userSpaceOnUse"
       id="clipPath33-1"><g
         inkscape:label="Clip"
         id="use33-9"
         style="fill:#2b1100" /></clipPath><clipPath
       clipPathUnits="userSpaceOnUse"
       id="clipPath33-1-0"><g
         inkscape:label="Clip"
         id="use33-9-7"
         style="fill:#2b1100"><path
           id="path47"
           style="fill:#2b1100;stroke-width:0.267723"
           d="m 208.04539,204.07871 -2.1e-4,174.2791 h 13.22917 L 213.53028,197.055 Z"
           transform="matrix(1,0,-0.21469964,0.97668012,0,0)"
           sodipodi:nodetypes="ccccc" /><path
           id="path48"
           style="fill:#28170b;stroke-width:0.102192"
           d="m 114.5795,296.22108 31.74798,29.87756 -0.43608,-10.9913 -32.7722,-24.64742 z"
           sodipodi:nodetypes="ccccc" /><path
           id="path49"
           style="fill:#28170b;stroke-width:0.0905882"
           d="m 138.9593,232.7907 19.22767,38.76545 -0.26411,-14.26095 -19.84796,-31.97946 z"
           sodipodi:nodetypes="ccccc" /><path
           id="path50"
           style="fill:#2b1100;stroke-width:0.113976"
           d="m 171.01307,313.97027 -30.85359,38.24262 0.42379,-14.06862 31.84896,-31.54816 z"
           sodipodi:nodetypes="ccccc" /><path
           id="path51"
           style="fill:#2b1100;stroke-width:0.102192"
           d="m 177.26747,280.98958 -31.74798,27.49274 0.43608,-10.95854 32.7722,-22.18566 z"
           sodipodi:nodetypes="ccccc" /><path
           id="path52"
           style="fill:#2b1100;stroke-width:0.086611"
           d="m 174.54589,240.39641 -22.8049,27.49274 0.31324,-10.95854 23.54061,-22.18566 z"
           sodipodi:nodetypes="ccccc" /><path
           id="path53"
           style="fill:#28170b;stroke-width:0.102192"
           d="m 132.44435,263.47153 19.64319,37.12048 -10.57933,-2.89094 -14.24175,-36.92416 z"
           sodipodi:nodetypes="ccccc" /></g></clipPath><clipPath
       clipPathUnits="userSpaceOnUse"
       id="clipPath33-3"><g
         inkscape:label="Clip"
         id="use33-8"><path
           id="path178"
           style="fill:#552200;stroke-width:0.267723"
           d="m 208.04539,204.07871 -2.1e-4,174.2791 h 13.22917 L 213.53028,197.055 Z"
           transform="matrix(1,0,-0.21469964,0.97668012,0,0)"
           sodipodi:nodetypes="ccccc" /><path
           id="path179"
           style="fill:#552200;stroke-width:0.102192"
           d="m 114.5795,296.22108 31.74798,29.87756 -0.43608,-10.9913 -32.7722,-24.64742 z"
           sodipodi:nodetypes="ccccc" /><path
           id="path180"
           style="fill:#552200;stroke-width:0.0905882"
           d="m 138.9593,232.7907 19.22767,38.76545 -0.26411,-14.26095 -19.84796,-31.97946 z"
           sodipodi:nodetypes="ccccc" /><path
           id="path181"
           style="fill:#502d16;stroke-width:0.113976"
           d="m 171.01307,313.97027 -30.85359,38.24262 0.42379,-14.06862 31.84896,-31.54816 z"
           sodipodi:nodetypes="ccccc" /><path
           id="path182"
           style="fill:#502d16;stroke-width:0.102192"
           d="m 177.26747,280.98958 -31.74798,27.49274 0.43608,-10.95854 32.7722,-22.18566 z"
           sodipodi:nodetypes="ccccc" /><path
           id="path183"
           style="fill:#502d16;stroke-width:0.086611"
           d="m 174.54589,240.39641 -22.8049,27.49274 0.31324,-10.95854 23.54061,-22.18566 z"
           sodipodi:nodetypes="ccccc" /><path
           id="path184"
           style="fill:#552200;stroke-width:0.102192"
           d="m 132.44435,263.47153 19.64319,37.12048 -10.57933,-2.89094 -14.24175,-36.92416 z"
           sodipodi:nodetypes="ccccc" /></g></clipPath><clipPath
       clipPathUnits="userSpaceOnUse"
       id="clipPath33-1-02"><g
         inkscape:label="Clip"
         id="use33-9-9"
         style="fill:#2b1100"><path
           id="path191"
           style="fill:#2b1100;stroke-width:0.267723"
           d="m 208.04539,204.07871 -2.1e-4,174.2791 h 13.22917 L 213.53028,197.055 Z"
           transform="matrix(1,0,-0.21469964,0.97668012,0,0)"
           sodipodi:nodetypes="ccccc" /><path
           id="path192"
           style="fill:#2b1100;stroke-width:0.102192"
           d="m 114.5795,296.22108 31.74798,29.87756 -0.43608,-10.9913 -32.7722,-24.64742 z"
           sodipodi:nodetypes="ccccc" /><path
           id="path193"
           style="fill:#2b1100;stroke-width:0.0905882"
           d="m 138.9593,232.7907 19.22767,38.76545 -0.26411,-14.26095 -19.84796,-31.97946 z"
           sodipodi:nodetypes="ccccc" /><path
           id="path194"
           style="fill:#28170b;stroke-width:0.113976"
           d="m 171.01307,313.97027 -30.85359,38.24262 0.42379,-14.06862 31.84896,-31.54816 z"
           sodipodi:nodetypes="ccccc" /><path
           id="path195"
           style="fill:#28170b;stroke-width:0.102192"
           d="m 177.26747,280.98958 -31.74798,27.49274 0.43608,-10.95854 32.7722,-22.18566 z"
           sodipodi:nodetypes="ccccc" /><path
           id="path196"
           style="fill:#28170b;stroke-width:0.086611"
           d="m 174.54589,240.39641 -22.8049,27.49274 0.31324,-10.95854 23.54061,-22.18566 z"
           sodipodi:nodetypes="ccccc" /><path
           id="path197"
           style="fill:#2b1100;stroke-width:0.102192"
           d="m 132.44435,263.47153 19.64319,37.12048 -10.57933,-2.89094 -14.24175,-36.92416 z"
           sodipodi:nodetypes="ccccc" /></g></clipPath><clipPath
       clipPathUnits="userSpaceOnUse"
       id="clipPath33-3-7"><g
         inkscape:label="Clip"
         id="use33-8-0"><path
           id="path185"
           style="fill:#803300;stroke-width:0.267723"
           d="m 208.04539,204.07871 -2.1e-4,174.2791 h 13.22917 L 213.53028,197.055 Z"
           transform="matrix(1,0,-0.21469964,0.97668012,0,0)"
           sodipodi:nodetypes="ccccc" /><path
           id="path186"
           style="fill:#803300;stroke-width:0.102192"
           d="m 114.5795,296.22108 31.74798,29.87756 -0.43608,-10.9913 -32.7722,-24.64742 z"
           sodipodi:nodetypes="ccccc" /><path
           id="path187"
           style="fill:#803300;stroke-width:0.0905882"
           d="m 138.9593,232.7907 19.22767,38.76545 -0.26411,-14.26095 -19.84796,-31.97946 z"
           sodipodi:nodetypes="ccccc" /><path
           d="m 178.72785,275.33835 -32.77224,22.18525 -0.43592,10.95869 31.74769,-27.49272 z"
           style="fill:#784421;stroke-width:0.102192"
           id="path188" /><path
           id="path189"
           style="fill:#784421;stroke-width:0.086611"
           d="m 174.54589,240.39641 -22.8049,27.49274 0.31324,-10.95854 23.54061,-22.18566 z"
           sodipodi:nodetypes="ccccc" /><path
           id="path190"
           style="fill:#803300;stroke-width:0.102192"
           d="m 132.44435,263.47153 19.64319,37.12048 -10.57933,-2.89094 -14.24175,-36.92416 z"
           sodipodi:nodetypes="ccccc" /></g></clipPath><clipPath
       clipPathUnits="userSpaceOnUse"
       id="clipPath33-37"><g
         inkscape:label="Clip"
         id="use33-7" /></clipPath><clipPath
       clipPathUnits="userSpaceOnUse"
       id="clipPath33-1-8"><g
         inkscape:label="Clip"
         id="use33-9-4"
         style="fill:#2b1100" /></clipPath><linearGradient
       x1="520.4988"
       y1="172.94985"
       x2="716.02845"
       y2="172.94985"
       gradientUnits="userSpaceOnUse"
       id="color-1"
       gradientTransform="translate(-56.484631,-5.7123227)"><stop
         offset="0"
         stop-color="#000000"
         id="stop1" /><stop
         offset="1"
         stop-color="#000000"
         stop-opacity="0"
         id="stop2" /></linearGradient><linearGradient
       x1="-51.94799"
       y1="222.79515"
       x2="92.19616"
       y2="222.79515"
       gradientUnits="userSpaceOnUse"
       id="color-2"><stop
         offset="0"
         stop-color="#000000"
         stop-opacity="0"
         id="stop3" /><stop
         offset="1"
         stop-color="#000000"
         id="stop4" /></linearGradient><radialGradient
       cx="708.40139"
       cy="105.863"
       r="97.76482"
       gradientUnits="userSpaceOnUse"
       id="color-3"><stop
         offset="0"
         stop-color="#ffffff"
         id="stop5" /><stop
         offset="1"
         stop-color="#002aff"
         stop-opacity="0.50196"
         id="stop6" /></radialGradient><radialGradient
       cx="572.63654"
       cy="105.863"
       r="38"
       gradientUnits="userSpaceOnUse"
       id="color-4"><stop
         offset="0"
         stop-color="#ffffff"
         id="stop7" /><stop
         offset="1"
         stop-color="#002aff"
         stop-opacity="0.50196"
         id="stop8" /></radialGradient><radialGradient
       cx="649.36029"
       cy="110.863"
       r="67.58334"
       gradientUnits="userSpaceOnUse"
       id="color-5"><stop
         offset="0"
         stop-color="#ffffff"
         id="stop9" /><stop
         offset="1"
         stop-color="#002aff"
         stop-opacity="0.50196"
         id="stop10" /></radialGradient><radialGradient
       cx="582.94355"
       cy="110.863"
       r="48.33333"
       gradientUnits="userSpaceOnUse"
       id="color-6"><stop
         offset="0"
         stop-color="#ffffff"
         id="stop11" /><stop
         offset="1"
         stop-color="#002aff"
         stop-opacity="0.50196"
         id="stop12" /></radialGradient><radialGradient
       cx="576.6102"
       cy="110.863"
       r="38"
       gradientUnits="userSpaceOnUse"
       id="color-7"><stop
         offset="0"
         stop-color="#ffffff"
         id="stop13" /><stop
         offset="1"
         stop-color="#002aff"
         stop-opacity="0.50196"
         id="stop14" /></radialGradient><radialGradient
       cx="657.94359"
       cy="110.863"
       r="51.75"
       gradientUnits="userSpaceOnUse"
       id="color-8"><stop
         offset="0"
         stop-color="#ffffff"
         id="stop15" /><stop
         offset="1"
         stop-color="#002aff"
         stop-opacity="0.50196"
         id="stop16" /></radialGradient><radialGradient
       cx="617.33624"
       cy="157.72465"
       r="84.83608"
       gradientUnits="userSpaceOnUse"
       id="color-9"><stop
         offset="0"
         stop-color="#0066ff"
         stop-opacity="0.90196"
         id="stop17" /><stop
         offset="1"
         stop-color="#0066ff"
         stop-opacity="0"
         id="stop18" /></radialGradient><radialGradient
       cx="617.33624"
       cy="185.28022"
       r="84.83608"
       gradientUnits="userSpaceOnUse"
       id="color-10"><stop
         offset="0"
         stop-color="#ff0000"
         stop-opacity="0.90196"
         id="stop19" /><stop
         offset="1"
         stop-color="#ff0000"
         stop-opacity="0"
         id="stop20" /></radialGradient><radialGradient
       cx="617.33624"
       cy="226.61355"
       r="84.83608"
       gradientUnits="userSpaceOnUse"
       id="color-11"><stop
         offset="0"
         stop-color="#cc00ff"
         stop-opacity="0.90196"
         id="stop21" /><stop
         offset="1"
         stop-color="#cc00ff"
         stop-opacity="0"
         id="stop22" /></radialGradient><radialGradient
       cx="617.33624"
       cy="254.11355"
       r="84.83608"
       gradientUnits="userSpaceOnUse"
       id="color-12"><stop
         offset="0"
         stop-color="#a3cc99"
         stop-opacity="0.90196"
         id="stop23" /><stop
         offset="1"
         stop-color="#a3cc99"
         stop-opacity="0"
         id="stop24" /></radialGradient><radialGradient
       cx="617.33624"
       cy="281.72466"
       r="84.83608"
       gradientUnits="userSpaceOnUse"
       id="color-13"><stop
         offset="0"
         stop-color="#a3cc99"
         stop-opacity="0.90196"
         id="stop25" /><stop
         offset="1"
         stop-color="#a3cc99"
         stop-opacity="0"
         id="stop26" /></radialGradient><linearGradient
       x1="531.50005"
       y1="231.5204"
       x2="531.50005"
       y2="238.96028"
       gradientUnits="userSpaceOnUse"
       id="color-14"><stop
         offset="0"
         stop-color="#cc00ff"
         stop-opacity="0.90196"
         id="stop27" /><stop
         offset="1"
         stop-color="#050505"
         id="stop28" /></linearGradient><linearGradient
       x1="531.50006"
       y1="232.24058"
       x2="531.50006"
       y2="238.24011"
       gradientUnits="userSpaceOnUse"
       id="color-16"><stop
         offset="0"
         stop-color="#cc00ff"
         stop-opacity="0.90196"
         id="stop31" /><stop
         offset="1"
         stop-color="#050505"
         id="stop32" /></linearGradient><clipPath
       clipPathUnits="userSpaceOnUse"
       id="clipPath33-6"><g
         inkscape:label="Clip"
         id="use33-81" /></clipPath><clipPath
       clipPathUnits="userSpaceOnUse"
       id="clipPath33-1-2"><g
         inkscape:label="Clip"
         id="use33-9-5"
         style="fill:#2b1100" /></clipPath><clipPath
       clipPathUnits="userSpaceOnUse"
       id="clipPath33-1-0-9"><g
         inkscape:label="Clip"
         id="use33-9-7-0"
         style="fill:#2b1100"><path
           id="path47-4"
           style="fill:#2b1100;stroke-width:0.267723"
           d="m 208.04539,204.07871 -2.1e-4,174.2791 h 13.22917 L 213.53028,197.055 Z"
           transform="matrix(1,0,-0.21469964,0.97668012,0,0)"
           sodipodi:nodetypes="ccccc" /><path
           id="path48-7"
           style="fill:#28170b;stroke-width:0.102192"
           d="m 114.5795,296.22108 31.74798,29.87756 -0.43608,-10.9913 -32.7722,-24.64742 z"
           sodipodi:nodetypes="ccccc" /><path
           id="path49-1"
           style="fill:#28170b;stroke-width:0.0905882"
           d="m 138.9593,232.7907 19.22767,38.76545 -0.26411,-14.26095 -19.84796,-31.97946 z"
           sodipodi:nodetypes="ccccc" /><path
           id="path50-9"
           style="fill:#2b1100;stroke-width:0.113976"
           d="m 171.01307,313.97027 -30.85359,38.24262 0.42379,-14.06862 31.84896,-31.54816 z"
           sodipodi:nodetypes="ccccc" /><path
           id="path51-6"
           style="fill:#2b1100;stroke-width:0.102192"
           d="m 177.26747,280.98958 -31.74798,27.49274 0.43608,-10.95854 32.7722,-22.18566 z"
           sodipodi:nodetypes="ccccc" /><path
           id="path52-9"
           style="fill:#2b1100;stroke-width:0.086611"
           d="m 174.54589,240.39641 -22.8049,27.49274 0.31324,-10.95854 23.54061,-22.18566 z"
           sodipodi:nodetypes="ccccc" /><path
           id="path53-7"
           style="fill:#28170b;stroke-width:0.102192"
           d="m 132.44435,263.47153 19.64319,37.12048 -10.57933,-2.89094 -14.24175,-36.92416 z"
           sodipodi:nodetypes="ccccc" /></g></clipPath><clipPath
       clipPathUnits="userSpaceOnUse"
       id="clipPath33-3-5"><g
         inkscape:label="Clip"
         id="use33-8-7"><path
           id="path178-4"
           style="fill:#552200;stroke-width:0.267723"
           d="m 208.04539,204.07871 -2.1e-4,174.2791 h 13.22917 L 213.53028,197.055 Z"
           transform="matrix(1,0,-0.21469964,0.97668012,0,0)"
           sodipodi:nodetypes="ccccc" /><path
           id="path179-6"
           style="fill:#552200;stroke-width:0.102192"
           d="m 114.5795,296.22108 31.74798,29.87756 -0.43608,-10.9913 -32.7722,-24.64742 z"
           sodipodi:nodetypes="ccccc" /><path
           id="path180-3"
           style="fill:#552200;stroke-width:0.0905882"
           d="m 138.9593,232.7907 19.22767,38.76545 -0.26411,-14.26095 -19.84796,-31.97946 z"
           sodipodi:nodetypes="ccccc" /><path
           id="path181-5"
           style="fill:#502d16;stroke-width:0.113976"
           d="m 171.01307,313.97027 -30.85359,38.24262 0.42379,-14.06862 31.84896,-31.54816 z"
           sodipodi:nodetypes="ccccc" /><path
           id="path182-2"
           style="fill:#502d16;stroke-width:0.102192"
           d="m 177.26747,280.98958 -31.74798,27.49274 0.43608,-10.95854 32.7722,-22.18566 z"
           sodipodi:nodetypes="ccccc" /><path
           id="path183-2"
           style="fill:#502d16;stroke-width:0.086611"
           d="m 174.54589,240.39641 -22.8049,27.49274 0.31324,-10.95854 23.54061,-22.18566 z"
           sodipodi:nodetypes="ccccc" /><path
           id="path184-0"
           style="fill:#552200;stroke-width:0.102192"
           d="m 132.44435,263.47153 19.64319,37.12048 -10.57933,-2.89094 -14.24175,-36.92416 z"
           sodipodi:nodetypes="ccccc" /></g></clipPath><clipPath
       clipPathUnits="userSpaceOnUse"
       id="clipPath33-1-02-9"><g
         inkscape:label="Clip"
         id="use33-9-9-5"
         style="fill:#2b1100"><path
           id="path191-9"
           style="fill:#2b1100;stroke-width:0.267723"
           d="m 208.04539,204.07871 -2.1e-4,174.2791 h 13.22917 L 213.53028,197.055 Z"
           transform="matrix(1,0,-0.21469964,0.97668012,0,0)"
           sodipodi:nodetypes="ccccc" /><path
           id="path192-1"
           style="fill:#2b1100;stroke-width:0.102192"
           d="m 114.5795,296.22108 31.74798,29.87756 -0.43608,-10.9913 -32.7722,-24.64742 z"
           sodipodi:nodetypes="ccccc" /><path
           id="path193-1"
           style="fill:#2b1100;stroke-width:0.0905882"
           d="m 138.9593,232.7907 19.22767,38.76545 -0.26411,-14.26095 -19.84796,-31.97946 z"
           sodipodi:nodetypes="ccccc" /><path
           id="path194-5"
           style="fill:#28170b;stroke-width:0.113976"
           d="m 171.01307,313.97027 -30.85359,38.24262 0.42379,-14.06862 31.84896,-31.54816 z"
           sodipodi:nodetypes="ccccc" /><path
           id="path195-0"
           style="fill:#28170b;stroke-width:0.102192"
           d="m 177.26747,280.98958 -31.74798,27.49274 0.43608,-10.95854 32.7722,-22.18566 z"
           sodipodi:nodetypes="ccccc" /><path
           id="path196-7"
           style="fill:#28170b;stroke-width:0.086611"
           d="m 174.54589,240.39641 -22.8049,27.49274 0.31324,-10.95854 23.54061,-22.18566 z"
           sodipodi:nodetypes="ccccc" /><path
           id="path197-0"
           style="fill:#2b1100;stroke-width:0.102192"
           d="m 132.44435,263.47153 19.64319,37.12048 -10.57933,-2.89094 -14.24175,-36.92416 z"
           sodipodi:nodetypes="ccccc" /></g></clipPath><clipPath
       clipPathUnits="userSpaceOnUse"
       id="clipPath33-3-7-7"><g
         inkscape:label="Clip"
         id="use33-8-0-2"><path
           id="path185-9"
           style="fill:#803300;stroke-width:0.267723"
           d="m 208.04539,204.07871 -2.1e-4,174.2791 h 13.22917 L 213.53028,197.055 Z"
           transform="matrix(1,0,-0.21469964,0.97668012,0,0)"
           sodipodi:nodetypes="ccccc" /><path
           id="path186-1"
           style="fill:#803300;stroke-width:0.102192"
           d="m 114.5795,296.22108 31.74798,29.87756 -0.43608,-10.9913 -32.7722,-24.64742 z"
           sodipodi:nodetypes="ccccc" /><path
           id="path187-9"
           style="fill:#803300;stroke-width:0.0905882"
           d="m 138.9593,232.7907 19.22767,38.76545 -0.26411,-14.26095 -19.84796,-31.97946 z"
           sodipodi:nodetypes="ccccc" /><path
           d="m 178.72785,275.33835 -32.77224,22.18525 -0.43592,10.95869 31.74769,-27.49272 z"
           style="fill:#784421;stroke-width:0.102192"
           id="path188-7" /><path
           id="path189-6"
           style="fill:#784421;stroke-width:0.086611"
           d="m 174.54589,240.39641 -22.8049,27.49274 0.31324,-10.95854 23.54061,-22.18566 z"
           sodipodi:nodetypes="ccccc" /><path
           id="path190-8"
           style="fill:#803300;stroke-width:0.102192"
           d="m 132.44435,263.47153 19.64319,37.12048 -10.57933,-2.89094 -14.24175,-36.92416 z"
           sodipodi:nodetypes="ccccc" /></g></clipPath><clipPath
       clipPathUnits="userSpaceOnUse"
       id="clipPath33-37-2"><g
         inkscape:label="Clip"
         id="use33-7-0" /></clipPath><clipPath
       clipPathUnits="userSpaceOnUse"
       id="clipPath33-1-8-9"><g
         inkscape:label="Clip"
         id="use33-9-4-9"
         style="fill:#2b1100" /></clipPath><radialGradient
       cx="708.40139"
       cy="105.863"
       r="97.76482"
       gradientUnits="userSpaceOnUse"
       id="color-3-0"><stop
         offset="0"
         stop-color="#ffffff"
         id="stop5-0" /><stop
         offset="1"
         stop-color="#002aff"
         stop-opacity="0.50196"
         id="stop6-5" /></radialGradient><radialGradient
       cx="572.63654"
       cy="105.863"
       r="38"
       gradientUnits="userSpaceOnUse"
       id="color-4-2"><stop
         offset="0"
         stop-color="#ffffff"
         id="stop7-6" /><stop
         offset="1"
         stop-color="#002aff"
         stop-opacity="0.50196"
         id="stop8-9" /></radialGradient><radialGradient
       cx="649.36029"
       cy="110.863"
       r="67.58334"
       gradientUnits="userSpaceOnUse"
       id="color-5-9"><stop
         offset="0"
         stop-color="#ffffff"
         id="stop9-6" /><stop
         offset="1"
         stop-color="#002aff"
         stop-opacity="0.50196"
         id="stop10-9" /></radialGradient><radialGradient
       cx="582.94355"
       cy="110.863"
       r="48.33333"
       gradientUnits="userSpaceOnUse"
       id="color-6-8"><stop
         offset="0"
         stop-color="#ffffff"
         id="stop11-0" /><stop
         offset="1"
         stop-color="#002aff"
         stop-opacity="0.50196"
         id="stop12-1" /></radialGradient><radialGradient
       cx="576.6102"
       cy="110.863"
       r="38"
       gradientUnits="userSpaceOnUse"
       id="color-7-6"><stop
         offset="0"
         stop-color="#ffffff"
         id="stop13-3" /><stop
         offset="1"
         stop-color="#002aff"
         stop-opacity="0.50196"
         id="stop14-1" /></radialGradient><radialGradient
       cx="657.94359"
       cy="110.863"
       r="51.75"
       gradientUnits="userSpaceOnUse"
       id="color-8-7"><stop
         offset="0"
         stop-color="#ffffff"
         id="stop15-2" /><stop
         offset="1"
         stop-color="#002aff"
         stop-opacity="0.50196"
         id="stop16-7" /></radialGradient><radialGradient
       cx="617.33624"
       cy="157.72465"
       r="84.83608"
       gradientUnits="userSpaceOnUse"
       id="color-9-0"><stop
         offset="0"
         stop-color="#0066ff"
         stop-opacity="0.90196"
         id="stop17-9" /><stop
         offset="1"
         stop-color="#0066ff"
         stop-opacity="0"
         id="stop18-7" /></radialGradient><radialGradient
       cx="617.33624"
       cy="185.28022"
       r="84.83608"
       gradientUnits="userSpaceOnUse"
       id="color-10-0"><stop
         offset="0"
         stop-color="#ff0000"
         stop-opacity="0.90196"
         id="stop19-0" /><stop
         offset="1"
         stop-color="#ff0000"
         stop-opacity="0"
         id="stop20-2" /></radialGradient><radialGradient
       cx="617.33624"
       cy="226.61355"
       r="84.83608"
       gradientUnits="userSpaceOnUse"
       id="color-11-9"><stop
         offset="0"
         stop-color="#cc00ff"
         stop-opacity="0.90196"
         id="stop21-9" /><stop
         offset="1"
         stop-color="#cc00ff"
         stop-opacity="0"
         id="stop22-5" /></radialGradient><radialGradient
       cx="617.33624"
       cy="254.11355"
       r="84.83608"
       gradientUnits="userSpaceOnUse"
       id="color-12-3"><stop
         offset="0"
         stop-color="#a3cc99"
         stop-opacity="0.90196"
         id="stop23-7" /><stop
         offset="1"
         stop-color="#a3cc99"
         stop-opacity="0"
         id="stop24-4" /></radialGradient><radialGradient
       cx="617.33624"
       cy="281.72466"
       r="84.83608"
       gradientUnits="userSpaceOnUse"
       id="color-13-2"><stop
         offset="0"
         stop-color="#a3cc99"
         stop-opacity="0.90196"
         id="stop25-9" /><stop
         offset="1"
         stop-color="#a3cc99"
         stop-opacity="0"
         id="stop26-3" /></radialGradient></defs><g
     inkscape:groupmode="layer"
     id="layer3"
     inkscape:label="background"
     style="display:inline"
     inkscape:highlight-color="#000000"><g
       id="g1"
       transform="translate(164.3619,-41.820996)"><g
         id="g75"
         inkscape:label="bonsai"
         style="opacity:1"
         transform="matrix(0.99508726,0,0,0.99508726,-20.108842,17.274739)"><path
           id="rect1-2"
           style="display:inline;fill:#552200;stroke-width:2.08539;stroke-opacity:0.75;paint-order:markers fill stroke"
           d="m 28.956246,264.87463 25.52162,9.02248 c 0,0 -43.31717,0.39221 -49.9999996,23.1914 -3.35807,11.45645 45.6419296,18.75805 49.4814396,38.23299 3.83952,19.47495 -35.48144,51.12326 -35.48144,51.12326 h -31.52162 c 0,0 49.32097,-31.64831 45.48145,-51.12325 -3.83952,-19.47495 -52.83952,-26.77655 -49.48145,-38.233 6.68283,-22.79919 46,-32.21388 46,-32.21388 z"
           sodipodi:nodetypes="ccssccssc" /><path
           id="path75-8"
           style="display:inline;fill:#37c837;stroke-width:2.92579;stroke-opacity:0.75;paint-order:markers fill stroke"
           d="m 42.463651,320.36675 c 0,0 -9.79695,5.55339 -19.001859,2.79439 -9.204909,-2.75899 -14.332057,-12.78559 -14.332057,-12.78559 0,0 9.796955,-5.55338 19.001856,-2.79438 9.204902,2.75899 14.33206,12.78558 14.33206,12.78558 z"
           sodipodi:nodetypes="cscsc" /><path
           id="path75-8-3"
           style="display:inline;fill:#2ca02c;stroke-width:2.92579;stroke-opacity:0.75;paint-order:markers fill stroke"
           d="m 63.339434,303.58169 c 0,0 -5.138244,10.02092 -14.346205,12.76972 -9.207955,2.74881 -18.998751,-2.81542 -18.998751,-2.81542 0,0 5.138253,-10.02092 14.346207,-12.76971 9.207949,-2.7488 18.998749,2.81541 18.998749,2.81541 z"
           sodipodi:nodetypes="cscsc" /><path
           id="path75-8-2"
           style="display:inline;fill:#2ca02c;stroke-width:2.92579;stroke-opacity:0.75;paint-order:markers fill stroke"
           d="m 23.686406,309.15569 c 0,0 -6.815711,8.96474 -16.3629932,10.05643 -9.547283,1.09169 -18.2107668,-6.10305 -18.2107668,-6.10305 0,0 6.8157204,-8.96473 16.3629952,-10.05642 9.5472738,-1.09169 18.2107648,6.10304 18.2107648,6.10304 z"
           sodipodi:nodetypes="cscsc" /><path
           id="path75-8-2-4"
           style="display:inline;fill:#2ca02c;stroke-width:2.92579;stroke-opacity:0.75;paint-order:markers fill stroke"
           d="m 41.57376,282.2158 c 0,0 -6.815711,8.96474 -16.362993,10.05643 C 15.663484,293.36392 7,286.16918 7,286.16918 c 0,0 6.81572,-8.96473 16.362995,-10.05642 9.547274,-1.09169 18.210765,6.10304 18.210765,6.10304 z"
           sodipodi:nodetypes="cscsc" /><path
           id="path75-8-2-4-0"
           style="display:inline;fill:#217821;stroke-width:2.92579;stroke-opacity:0.75;paint-order:markers fill stroke"
           d="m 46.57376,300.2158 c 0,0 -6.815711,8.96474 -16.362993,10.05643 C 20.663484,311.36392 12,304.16918 12,304.16918 c 0,0 6.81572,-8.96473 16.362995,-10.05642 9.547274,-1.09169 18.210765,6.10304 18.210765,6.10304 z"
           sodipodi:nodetypes="cscsc" /><path
           id="path75-8-2-3"
           style="display:inline;fill:#37c837;stroke-width:3.79623;stroke-opacity:0.75;paint-order:markers fill stroke"
           d="m 59.985814,270.34751 c 0,0 -9.398842,11.34752 -20.992906,11.34752 C 27.398842,281.69503 18,270.34751 18,270.34751 18,270.34751 27.398851,259 38.992908,259 c 11.594055,0 20.992906,11.34751 20.992906,11.34751 z"
           sodipodi:nodetypes="cscsc" /><path
           id="path75-8-2-3-7"
           style="display:inline;fill:#37c837;stroke-width:3.79623;stroke-opacity:0.75;paint-order:markers fill stroke"
           d="m 18.140968,279.45194 c 0,0 -5.833798,13.53038 -16.9612675,16.78642 -11.1274712,3.25603 -23.3348575,-4.99528 -23.3348575,-4.99528 0,0 5.83381,-13.53038 16.9612724,-16.78641 11.1274607,-3.25603 23.3348526,4.99527 23.3348526,4.99527 z"
           sodipodi:nodetypes="cscsc" /><path
           id="path75-8-2-3-7-0"
           style="display:inline;fill:#2ca02c;stroke-width:3.79623;stroke-opacity:0.75;paint-order:markers fill stroke"
           d="m 30.296125,256.7559 c 0,0 -5.833798,13.53038 -16.961268,16.78642 C 2.207386,276.79835 -10,268.54704 -10,268.54704 c 0,0 5.83381,-13.53038 16.961272,-16.78641 11.127461,-3.25603 23.334853,4.99527 23.334853,4.99527 z"
           sodipodi:nodetypes="cscsc" /></g></g></g></svg>
