<?xml version="1.0" encoding="UTF-8" standalone="no"?>
<!-- Created with Inkscape (http://www.inkscape.org/) -->

<svg
   width="640"
   height="360"
   viewBox="0 0 640 360"
   version="1.1"
   id="svg1"
   inkscape:version="1.3.2 (091e20e, 2023-11-25, custom)"
   sodipodi:docname="Moon.svg"
   xml:space="preserve"
   xmlns:inkscape="http://www.inkscape.org/namespaces/inkscape"
   xmlns:sodipodi="http://sodipodi.sourceforge.net/DTD/sodipodi-0.dtd"
   xmlns:xlink="http://www.w3.org/1999/xlink"
   xmlns="http://www.w3.org/2000/svg"
   xmlns:svg="http://www.w3.org/2000/svg"><sodipodi:namedview
     id="namedview1"
     pagecolor="#505050"
     bordercolor="#ffffff"
     borderopacity="1"
     inkscape:showpageshadow="false"
     inkscape:pageopacity="0"
     inkscape:pagecheckerboard="1"
     inkscape:deskcolor="#505050"
     inkscape:document-units="px"
     showguides="true"
     inkscape:lockguides="true"
     showborder="true"
     borderlayer="true"
     labelstyle="default"
     shape-rendering="auto"
     inkscape:clip-to-page="false"
     inkscape:zoom="0.46735339"
     inkscape:cx="115.54426"
     inkscape:cy="193.64362"
     inkscape:window-width="1366"
     inkscape:window-height="715"
     inkscape:window-x="-8"
     inkscape:window-y="-8"
     inkscape:window-maximized="1"
     inkscape:current-layer="svg1" /><defs
     id="defs1"><linearGradient
       id="linearGradient51"
       inkscape:collect="always"><stop
         style="stop-color:#ffffff;stop-opacity:0.80165303;"
         offset="0.2"
         id="stop50" /><stop
         style="stop-color:#00ffd4;stop-opacity:0.05;"
         offset="1"
         id="stop51" /></linearGradient><linearGradient
       id="linearGradient49"
       inkscape:collect="always"><stop
         style="stop-color:#ffffff;stop-opacity:0.80165303;"
         offset="0"
         id="stop48" /><stop
         style="stop-color:#00ffd4;stop-opacity:0.05;"
         offset="1"
         id="stop49" /></linearGradient><linearGradient
       id="linearGradient45"
       inkscape:collect="always"><stop
         style="stop-color:#ffffff;stop-opacity:1;"
         offset="0.46885246"
         id="stop46" /><stop
         style="stop-color:#00ffd4;stop-opacity:0.05098039;"
         offset="1"
         id="stop47" /></linearGradient><linearGradient
       id="linearGradient44"
       inkscape:collect="always"><stop
         style="stop-color:#ffffff;stop-opacity:0.80165303;"
         offset="0"
         id="stop44" /><stop
         style="stop-color:#00ffd4;stop-opacity:0.05098039;"
         offset="1"
         id="stop45" /></linearGradient><linearGradient
       id="linearGradient35"
       inkscape:collect="always"><stop
         style="stop-color:#ffffff;stop-opacity:0.5;"
         offset="0"
         id="stop35" /><stop
         style="stop-color:#2a6bff;stop-opacity:0;"
         offset="1"
         id="stop36" /></linearGradient><linearGradient
       id="linearGradient34"
       inkscape:collect="always"><stop
         style="stop-color:#3d57ff;stop-opacity:0.5;"
         offset="0"
         id="stop33" /><stop
         style="stop-color:#99ddff;stop-opacity:0;"
         offset="0.72786885"
         id="stop34" /></linearGradient><linearGradient
       id="linearGradient4"
       inkscape:collect="always"><stop
         style="stop-color:#4985df;stop-opacity:0.5;"
         offset="0"
         id="stop29" /><stop
         style="stop-color:#c10088;stop-opacity:0.02;"
         offset="0.50163943"
         id="stop30" /></linearGradient><linearGradient
       id="linearGradient112"
       inkscape:collect="always"><stop
         style="stop-color:#001a73;stop-opacity:0.5;"
         offset="0"
         id="stop111" /><stop
         style="stop-color:#006952;stop-opacity:0.15000001;"
         offset="1"
         id="stop112" /></linearGradient><linearGradient
       id="linearGradient109"
       inkscape:collect="always"><stop
         style="stop-color:#2f8ea3;stop-opacity:1;"
         offset="0"
         id="stop109" /><stop
         style="stop-color:#144a3f;stop-opacity:1;"
         offset="1"
         id="stop110" /></linearGradient><clipPath
       clipPathUnits="userSpaceOnUse"
       id="clipPath33"><g
         inkscape:label="Clip"
         id="use33" /></clipPath><clipPath
       clipPathUnits="userSpaceOnUse"
       id="clipPath33-1"><g
         inkscape:label="Clip"
         id="use33-9"
         style="fill:#2b1100" /></clipPath><clipPath
       clipPathUnits="userSpaceOnUse"
       id="clipPath33-1-0"><g
         inkscape:label="Clip"
         id="use33-9-7"
         style="fill:#2b1100"><path
           id="path47"
           style="fill:#2b1100;stroke-width:0.267723"
           d="m 208.04539,204.07871 -2.1e-4,174.2791 h 13.22917 L 213.53028,197.055 Z"
           transform="matrix(1,0,-0.21469964,0.97668012,0,0)"
           sodipodi:nodetypes="ccccc" /><path
           id="path48"
           style="fill:#28170b;stroke-width:0.102192"
           d="m 114.5795,296.22108 31.74798,29.87756 -0.43608,-10.9913 -32.7722,-24.64742 z"
           sodipodi:nodetypes="ccccc" /><path
           id="path49"
           style="fill:#28170b;stroke-width:0.0905882"
           d="m 138.9593,232.7907 19.22767,38.76545 -0.26411,-14.26095 -19.84796,-31.97946 z"
           sodipodi:nodetypes="ccccc" /><path
           id="path50"
           style="fill:#2b1100;stroke-width:0.113976"
           d="m 171.01307,313.97027 -30.85359,38.24262 0.42379,-14.06862 31.84896,-31.54816 z"
           sodipodi:nodetypes="ccccc" /><path
           id="path51"
           style="fill:#2b1100;stroke-width:0.102192"
           d="m 177.26747,280.98958 -31.74798,27.49274 0.43608,-10.95854 32.7722,-22.18566 z"
           sodipodi:nodetypes="ccccc" /><path
           id="path52"
           style="fill:#2b1100;stroke-width:0.086611"
           d="m 174.54589,240.39641 -22.8049,27.49274 0.31324,-10.95854 23.54061,-22.18566 z"
           sodipodi:nodetypes="ccccc" /><path
           id="path53"
           style="fill:#28170b;stroke-width:0.102192"
           d="m 132.44435,263.47153 19.64319,37.12048 -10.57933,-2.89094 -14.24175,-36.92416 z"
           sodipodi:nodetypes="ccccc" /></g></clipPath><clipPath
       clipPathUnits="userSpaceOnUse"
       id="clipPath33-3"><g
         inkscape:label="Clip"
         id="use33-8"><path
           id="path178"
           style="fill:#552200;stroke-width:0.267723"
           d="m 208.04539,204.07871 -2.1e-4,174.2791 h 13.22917 L 213.53028,197.055 Z"
           transform="matrix(1,0,-0.21469964,0.97668012,0,0)"
           sodipodi:nodetypes="ccccc" /><path
           id="path179"
           style="fill:#552200;stroke-width:0.102192"
           d="m 114.5795,296.22108 31.74798,29.87756 -0.43608,-10.9913 -32.7722,-24.64742 z"
           sodipodi:nodetypes="ccccc" /><path
           id="path180"
           style="fill:#552200;stroke-width:0.0905882"
           d="m 138.9593,232.7907 19.22767,38.76545 -0.26411,-14.26095 -19.84796,-31.97946 z"
           sodipodi:nodetypes="ccccc" /><path
           id="path181"
           style="fill:#502d16;stroke-width:0.113976"
           d="m 171.01307,313.97027 -30.85359,38.24262 0.42379,-14.06862 31.84896,-31.54816 z"
           sodipodi:nodetypes="ccccc" /><path
           id="path182"
           style="fill:#502d16;stroke-width:0.102192"
           d="m 177.26747,280.98958 -31.74798,27.49274 0.43608,-10.95854 32.7722,-22.18566 z"
           sodipodi:nodetypes="ccccc" /><path
           id="path183"
           style="fill:#502d16;stroke-width:0.086611"
           d="m 174.54589,240.39641 -22.8049,27.49274 0.31324,-10.95854 23.54061,-22.18566 z"
           sodipodi:nodetypes="ccccc" /><path
           id="path184"
           style="fill:#552200;stroke-width:0.102192"
           d="m 132.44435,263.47153 19.64319,37.12048 -10.57933,-2.89094 -14.24175,-36.92416 z"
           sodipodi:nodetypes="ccccc" /></g></clipPath><clipPath
       clipPathUnits="userSpaceOnUse"
       id="clipPath33-1-02"><g
         inkscape:label="Clip"
         id="use33-9-9"
         style="fill:#2b1100"><path
           id="path191"
           style="fill:#2b1100;stroke-width:0.267723"
           d="m 208.04539,204.07871 -2.1e-4,174.2791 h 13.22917 L 213.53028,197.055 Z"
           transform="matrix(1,0,-0.21469964,0.97668012,0,0)"
           sodipodi:nodetypes="ccccc" /><path
           id="path192"
           style="fill:#2b1100;stroke-width:0.102192"
           d="m 114.5795,296.22108 31.74798,29.87756 -0.43608,-10.9913 -32.7722,-24.64742 z"
           sodipodi:nodetypes="ccccc" /><path
           id="path193"
           style="fill:#2b1100;stroke-width:0.0905882"
           d="m 138.9593,232.7907 19.22767,38.76545 -0.26411,-14.26095 -19.84796,-31.97946 z"
           sodipodi:nodetypes="ccccc" /><path
           id="path194"
           style="fill:#28170b;stroke-width:0.113976"
           d="m 171.01307,313.97027 -30.85359,38.24262 0.42379,-14.06862 31.84896,-31.54816 z"
           sodipodi:nodetypes="ccccc" /><path
           id="path195"
           style="fill:#28170b;stroke-width:0.102192"
           d="m 177.26747,280.98958 -31.74798,27.49274 0.43608,-10.95854 32.7722,-22.18566 z"
           sodipodi:nodetypes="ccccc" /><path
           id="path196"
           style="fill:#28170b;stroke-width:0.086611"
           d="m 174.54589,240.39641 -22.8049,27.49274 0.31324,-10.95854 23.54061,-22.18566 z"
           sodipodi:nodetypes="ccccc" /><path
           id="path197"
           style="fill:#2b1100;stroke-width:0.102192"
           d="m 132.44435,263.47153 19.64319,37.12048 -10.57933,-2.89094 -14.24175,-36.92416 z"
           sodipodi:nodetypes="ccccc" /></g></clipPath><clipPath
       clipPathUnits="userSpaceOnUse"
       id="clipPath33-3-7"><g
         inkscape:label="Clip"
         id="use33-8-0"><path
           id="path185"
           style="fill:#803300;stroke-width:0.267723"
           d="m 208.04539,204.07871 -2.1e-4,174.2791 h 13.22917 L 213.53028,197.055 Z"
           transform="matrix(1,0,-0.21469964,0.97668012,0,0)"
           sodipodi:nodetypes="ccccc" /><path
           id="path186"
           style="fill:#803300;stroke-width:0.102192"
           d="m 114.5795,296.22108 31.74798,29.87756 -0.43608,-10.9913 -32.7722,-24.64742 z"
           sodipodi:nodetypes="ccccc" /><path
           id="path187"
           style="fill:#803300;stroke-width:0.0905882"
           d="m 138.9593,232.7907 19.22767,38.76545 -0.26411,-14.26095 -19.84796,-31.97946 z"
           sodipodi:nodetypes="ccccc" /><path
           d="m 178.72785,275.33835 -32.77224,22.18525 -0.43592,10.95869 31.74769,-27.49272 z"
           style="fill:#784421;stroke-width:0.102192"
           id="path188" /><path
           id="path189"
           style="fill:#784421;stroke-width:0.086611"
           d="m 174.54589,240.39641 -22.8049,27.49274 0.31324,-10.95854 23.54061,-22.18566 z"
           sodipodi:nodetypes="ccccc" /><path
           id="path190"
           style="fill:#803300;stroke-width:0.102192"
           d="m 132.44435,263.47153 19.64319,37.12048 -10.57933,-2.89094 -14.24175,-36.92416 z"
           sodipodi:nodetypes="ccccc" /></g></clipPath><linearGradient
       inkscape:collect="always"
       xlink:href="#linearGradient109"
       id="linearGradient110"
       x1="0"
       y1="180"
       x2="640"
       y2="180"
       gradientUnits="userSpaceOnUse"
       gradientTransform="matrix(0.5625,0,0,1.7777778,0,-640.00001)"
       spreadMethod="pad" /><linearGradient
       inkscape:collect="always"
       xlink:href="#linearGradient112"
       id="linearGradient111"
       gradientUnits="userSpaceOnUse"
       gradientTransform="matrix(0.88109257,0,1.723882e-8,2.0296301,-7.5690235,-655.76229)"
       x1="0"
       y1="180"
       x2="640"
       y2="180"
       spreadMethod="pad" /><clipPath
       clipPathUnits="userSpaceOnUse"
       id="clipPath33-37"><g
         inkscape:label="Clip"
         id="use33-7" /></clipPath><clipPath
       clipPathUnits="userSpaceOnUse"
       id="clipPath33-1-8"><g
         inkscape:label="Clip"
         id="use33-9-4"
         style="fill:#2b1100" /></clipPath><linearGradient
       x1="520.4988"
       y1="172.94985"
       x2="716.02845"
       y2="172.94985"
       gradientUnits="userSpaceOnUse"
       id="color-1"
       gradientTransform="translate(-56.484631,-5.7123227)"><stop
         offset="0"
         stop-color="#000000"
         id="stop1" /><stop
         offset="1"
         stop-color="#000000"
         stop-opacity="0"
         id="stop2" /></linearGradient><linearGradient
       x1="-51.94799"
       y1="222.79515"
       x2="92.19616"
       y2="222.79515"
       gradientUnits="userSpaceOnUse"
       id="color-2"><stop
         offset="0"
         stop-color="#000000"
         stop-opacity="0"
         id="stop3" /><stop
         offset="1"
         stop-color="#000000"
         id="stop4" /></linearGradient><radialGradient
       cx="708.40139"
       cy="105.863"
       r="97.76482"
       gradientUnits="userSpaceOnUse"
       id="color-3"><stop
         offset="0"
         stop-color="#ffffff"
         id="stop5" /><stop
         offset="1"
         stop-color="#002aff"
         stop-opacity="0.50196"
         id="stop6" /></radialGradient><radialGradient
       cx="572.63654"
       cy="105.863"
       r="38"
       gradientUnits="userSpaceOnUse"
       id="color-4"><stop
         offset="0"
         stop-color="#ffffff"
         id="stop7" /><stop
         offset="1"
         stop-color="#002aff"
         stop-opacity="0.50196"
         id="stop8" /></radialGradient><radialGradient
       cx="649.36029"
       cy="110.863"
       r="67.58334"
       gradientUnits="userSpaceOnUse"
       id="color-5"><stop
         offset="0"
         stop-color="#ffffff"
         id="stop9" /><stop
         offset="1"
         stop-color="#002aff"
         stop-opacity="0.50196"
         id="stop10" /></radialGradient><radialGradient
       cx="582.94355"
       cy="110.863"
       r="48.33333"
       gradientUnits="userSpaceOnUse"
       id="color-6"><stop
         offset="0"
         stop-color="#ffffff"
         id="stop11" /><stop
         offset="1"
         stop-color="#002aff"
         stop-opacity="0.50196"
         id="stop12" /></radialGradient><radialGradient
       cx="576.6102"
       cy="110.863"
       r="38"
       gradientUnits="userSpaceOnUse"
       id="color-7"><stop
         offset="0"
         stop-color="#ffffff"
         id="stop13" /><stop
         offset="1"
         stop-color="#002aff"
         stop-opacity="0.50196"
         id="stop14" /></radialGradient><radialGradient
       cx="657.94359"
       cy="110.863"
       r="51.75"
       gradientUnits="userSpaceOnUse"
       id="color-8"><stop
         offset="0"
         stop-color="#ffffff"
         id="stop15" /><stop
         offset="1"
         stop-color="#002aff"
         stop-opacity="0.50196"
         id="stop16" /></radialGradient><radialGradient
       cx="617.33624"
       cy="157.72465"
       r="84.83608"
       gradientUnits="userSpaceOnUse"
       id="color-9"><stop
         offset="0"
         stop-color="#0066ff"
         stop-opacity="0.90196"
         id="stop17" /><stop
         offset="1"
         stop-color="#0066ff"
         stop-opacity="0"
         id="stop18" /></radialGradient><radialGradient
       cx="617.33624"
       cy="185.28022"
       r="84.83608"
       gradientUnits="userSpaceOnUse"
       id="color-10"><stop
         offset="0"
         stop-color="#ff0000"
         stop-opacity="0.90196"
         id="stop19" /><stop
         offset="1"
         stop-color="#ff0000"
         stop-opacity="0"
         id="stop20" /></radialGradient><radialGradient
       cx="617.33624"
       cy="226.61355"
       r="84.83608"
       gradientUnits="userSpaceOnUse"
       id="color-11"><stop
         offset="0"
         stop-color="#cc00ff"
         stop-opacity="0.90196"
         id="stop21" /><stop
         offset="1"
         stop-color="#cc00ff"
         stop-opacity="0"
         id="stop22" /></radialGradient><radialGradient
       cx="617.33624"
       cy="254.11355"
       r="84.83608"
       gradientUnits="userSpaceOnUse"
       id="color-12"><stop
         offset="0"
         stop-color="#a3cc99"
         stop-opacity="0.90196"
         id="stop23" /><stop
         offset="1"
         stop-color="#a3cc99"
         stop-opacity="0"
         id="stop24" /></radialGradient><radialGradient
       cx="617.33624"
       cy="281.72466"
       r="84.83608"
       gradientUnits="userSpaceOnUse"
       id="color-13"><stop
         offset="0"
         stop-color="#a3cc99"
         stop-opacity="0.90196"
         id="stop25" /><stop
         offset="1"
         stop-color="#a3cc99"
         stop-opacity="0"
         id="stop26" /></radialGradient><linearGradient
       x1="531.50005"
       y1="231.5204"
       x2="531.50005"
       y2="238.96028"
       gradientUnits="userSpaceOnUse"
       id="color-14"><stop
         offset="0"
         stop-color="#cc00ff"
         stop-opacity="0.90196"
         id="stop27" /><stop
         offset="1"
         stop-color="#050505"
         id="stop28" /></linearGradient><linearGradient
       x1="531.50006"
       y1="232.24058"
       x2="531.50006"
       y2="238.24011"
       gradientUnits="userSpaceOnUse"
       id="color-16"><stop
         offset="0"
         stop-color="#cc00ff"
         stop-opacity="0.90196"
         id="stop31" /><stop
         offset="1"
         stop-color="#050505"
         id="stop32" /></linearGradient><radialGradient
       inkscape:collect="always"
       xlink:href="#linearGradient4"
       id="radialGradient30"
       cx="99.436882"
       cy="191.80272"
       fx="99.436882"
       fy="191.80272"
       r="190.47688"
       gradientTransform="matrix(2.901039,0,0,0.61376573,-10.112164,16.258887)"
       gradientUnits="userSpaceOnUse" /><radialGradient
       inkscape:collect="always"
       xlink:href="#linearGradient34"
       id="radialGradient30-9"
       cx="99.436882"
       cy="191.80272"
       fx="99.436882"
       fy="191.80272"
       r="190.47688"
       gradientTransform="matrix(2.901039,0,0,0.61376573,86.919506,106.62898)"
       gradientUnits="userSpaceOnUse" /><linearGradient
       inkscape:collect="always"
       xlink:href="#linearGradient35"
       id="linearGradient36"
       x1="-101.6466"
       y1="236.43883"
       x2="511.76856"
       y2="236.43883"
       gradientUnits="userSpaceOnUse"
       gradientTransform="matrix(0.23198851,0,0,6.5243185,-343.56869,-1245.6174)" /><filter
       inkscape:collect="always"
       style="color-interpolation-filters:sRGB"
       id="filter52"
       x="-0.0026475684"
       y="-0.012514057"
       width="1.0052951"
       height="1.0250281"><feGaussianBlur
         inkscape:collect="always"
         stdDeviation="1.2191631"
         id="feGaussianBlur52" /></filter><filter
       inkscape:collect="always"
       style="color-interpolation-filters:sRGB"
       id="filter53"
       x="-0.0026475684"
       y="-0.012514057"
       width="1.0052951"
       height="1.0250281"><feGaussianBlur
         inkscape:collect="always"
         stdDeviation="1.2191631"
         id="feGaussianBlur53" /></filter><radialGradient
       inkscape:collect="always"
       xlink:href="#linearGradient44"
       id="radialGradient45"
       cx="46.884495"
       cy="-38.570873"
       fx="46.884495"
       fy="-38.570873"
       r="7.4875312"
       gradientTransform="matrix(1,0,0,1.0005266,0,0.02031138)"
       gradientUnits="userSpaceOnUse" /><radialGradient
       inkscape:collect="always"
       xlink:href="#linearGradient45"
       id="radialGradient47"
       cx="46.884495"
       cy="-38.570873"
       fx="46.884495"
       fy="-38.570873"
       r="7.4875312"
       gradientTransform="matrix(1,0,0,1.0005266,0,0.02031138)"
       gradientUnits="userSpaceOnUse" /><radialGradient
       inkscape:collect="always"
       xlink:href="#linearGradient49"
       id="radialGradient45-6"
       cx="46.884495"
       cy="-38.570873"
       fx="46.884495"
       fy="-38.570873"
       r="7.4875312"
       gradientTransform="matrix(1,0,0,1.0005266,0,0.02031138)"
       gradientUnits="userSpaceOnUse" /><radialGradient
       inkscape:collect="always"
       xlink:href="#linearGradient49"
       id="radialGradient45-6-1"
       cx="46.884495"
       cy="-38.570873"
       fx="46.884495"
       fy="-38.570873"
       r="7.4875312"
       gradientTransform="matrix(1,0,0,1.0005266,0,0.02031138)"
       gradientUnits="userSpaceOnUse" /><radialGradient
       inkscape:collect="always"
       xlink:href="#linearGradient51"
       id="radialGradient45-6-1-2"
       cx="46.884495"
       cy="-38.570873"
       fx="46.884495"
       fy="-38.570873"
       r="7.4875312"
       gradientTransform="matrix(1,0,0,1.0005266,0,0.02031138)"
       gradientUnits="userSpaceOnUse" /></defs><rect
     style="display:inline;mix-blend-mode:normal;fill:url(#linearGradient110);fill-opacity:1;fill-rule:nonzero;stroke-width:1.11315"
     id="rect98"
     width="360"
     height="640"
     x="0"
     y="-640"
     ry="0"
     transform="rotate(90)" /><rect
     style="display:inline;mix-blend-mode:normal;fill:url(#linearGradient111);fill-opacity:1;fill-rule:nonzero;stroke-width:1.48857"
     id="rect98-6"
     width="563.89929"
     height="730.66687"
     x="-7.5690341"
     y="-655.76227"
     ry="0"
     transform="matrix(0.13521682,0.99081603,-0.96548428,0.26046134,0,0)" /><g
     inkscape:groupmode="layer"
     id="layer3"
     inkscape:label="background"
     style="display:inline"
     inkscape:highlight-color="#000000"><rect
       style="mix-blend-mode:normal;fill:url(#radialGradient30);stroke-width:2.59457;filter:url(#filter52)"
       id="rect4"
       width="1105.1617"
       height="233.81636"
       x="-274.22278"
       y="17.07262"
       transform="matrix(0.99751019,-0.15726543,0,2.2300033,80,-80.65123)" /><rect
       style="mix-blend-mode:normal;fill:url(#radialGradient30-9);stroke-width:2.59457;filter:url(#filter53)"
       id="rect4-2"
       width="1105.1617"
       height="233.81636"
       x="-177.19109"
       y="107.44292"
       transform="matrix(0.99751019,-0.19120831,0,2.7113089,0,-338.62981)" /><path
       sodipodi:type="star"
       style="fill:url(#radialGradient47);fill-opacity:1"
       id="path44"
       inkscape:flatsided="false"
       sodipodi:sides="25"
       sodipodi:cx="46.903072"
       sodipodi:cy="-38.581558"
       sodipodi:r1="7.50806"
       sodipodi:r2="1.5016118"
       sodipodi:arg1="0.85670563"
       sodipodi:arg2="0.98236933"
       inkscape:rounded="0.1"
       inkscape:randomized="0"
       d="m 51.82033,-32.907799 c -0.455018,0.394349 -3.582928,-4.758907 -4.083783,-4.424696 -0.500855,0.33421 3.057085,5.200515 2.518292,5.469316 -0.538793,0.268802 -2.286872,-5.500434 -2.855107,-5.301281 -0.568234,0.199153 1.667726,5.797398 1.079012,5.923762 -0.588714,0.126364 -0.847123,-5.896351 -1.447033,-5.844769 -0.59991,0.05158 0.173577,6.030009 -0.428067,6.005996 -0.601644,-0.02401 0.645853,-5.921777 0.05196,-6.021007 -0.593891,-0.09923 -1.331479,5.883732 -1.908249,5.71085 -0.576771,-0.172882 2.098248,-5.575116 1.547694,-5.818923 -0.550555,-0.243807 -2.752873,5.367758 -3.268529,5.056871 -0.515656,-0.310887 3.418803,-4.878151 2.946178,-5.251215 -0.472626,-0.373065 -4.001293,4.514508 -4.423435,4.08515 -0.422141,-0.429359 4.524542,-3.874673 4.159542,-4.353554 -0.364999,-0.478881 -4.998297,3.377596 -5.300399,2.856744 -0.302102,-0.520852 5.345987,-2.627735 5.111547,-3.182343 -0.23444,-0.554608 -5.68124,2.028457 -5.844321,1.448839 -0.16308,-0.579618 5.831524,-1.215687 5.742375,-1.811174 -0.08915,-0.595487 -6.00721,0.551862 -6.021022,-0.0501 -0.01381,-0.601965 5.950645,0.272747 6.012388,-0.326202 0.06174,-0.598949 -5.955725,-0.959408 -5.819401,-1.545896 0.136325,-0.586488 5.695865,1.744044 5.904622,1.179267 0.208756,-0.564777 -5.530021,-2.410396 -5.252125,-2.944556 0.277895,-0.534159 5.083193,3.105756 5.425845,2.610638 0.342652,-0.495118 -4.756844,-3.709929 -4.354839,-4.158197 0.402005,-0.448268 4.151125,4.272321 4.606143,3.877972 0.455018,-0.394349 -3.684777,-4.776353 -3.183922,-5.110564 0.500855,-0.33421 2.958227,5.170441 3.49702,4.90164 0.538793,-0.268801 -2.381182,-5.542662 -1.812947,-5.741815 0.568234,-0.199153 1.579452,5.743683 2.168166,5.617319 0.588714,-0.126364 -0.927968,-5.960705 -0.328059,-6.012287 0.59991,-0.05158 0.101435,5.956028 0.703079,5.980042 0.601644,0.02401 0.583552,-6.004215 1.177443,-5.904986 0.59389,0.09923 -1.382956,5.794135 -0.806186,5.967017 0.576771,0.172882 2.058407,-5.670458 2.608961,-5.426651 0.550555,0.243807 -2.78045,5.268174 -2.264794,5.579061 0.515656,0.310888 3.403924,-4.980405 3.876549,-4.60734 0.472626,0.373064 -4.003239,4.411195 -3.581098,4.840553 0.422142,0.429359 4.53556,-3.977415 4.90056,-3.498534 0.364999,0.478882 -4.97449,3.277044 -4.672388,3.797896 0.302102,0.520852 5.382209,-2.724509 5.616649,-2.169901 0.23444,0.554608 -5.633175,1.936984 -5.470094,2.516602 0.16308,0.579618 5.890675,-1.300413 5.979824,-0.704926 0.08915,0.595487 -5.937907,0.475217 -5.924095,1.077181 0.01381,0.601965 6.029009,0.205393 5.967265,0.804342 -0.06174,0.59895 -5.869538,-1.01641 -6.005862,-0.429922 -0.136325,0.586488 5.788517,1.698294 5.57976,2.263071 -0.208756,0.564777 -5.432364,-2.444173 -5.71026,-1.910013 -0.277895,0.534159 5.184312,3.084484 4.84166,3.579602 -0.342652,0.495118 -4.653856,-3.718359 -5.055861,-3.270091 -0.402005,0.448269 4.254357,4.276866 3.799339,4.671215 z"
       inkscape:transform-center-x="0.019105905"
       inkscape:transform-center-y="0.011535946"
       transform="matrix(1.0284789,0,0,1.0799233,201.08568,103.33456)" /><path
       sodipodi:type="star"
       style="display:inline;fill:url(#radialGradient45);fill-opacity:0.801653"
       id="path44-7"
       inkscape:flatsided="false"
       sodipodi:sides="25"
       sodipodi:cx="46.903072"
       sodipodi:cy="-38.581558"
       sodipodi:r1="7.50806"
       sodipodi:r2="1.5016118"
       sodipodi:arg1="0.85670563"
       sodipodi:arg2="0.98236933"
       inkscape:rounded="0.1"
       inkscape:randomized="0"
       d="m 51.82033,-32.907799 c -0.455018,0.394349 -3.582928,-4.758907 -4.083783,-4.424696 -0.500855,0.33421 3.057085,5.200515 2.518292,5.469316 -0.538793,0.268802 -2.286872,-5.500434 -2.855107,-5.301281 -0.568234,0.199153 1.667726,5.797398 1.079012,5.923762 -0.588714,0.126364 -0.847123,-5.896351 -1.447033,-5.844769 -0.59991,0.05158 0.173577,6.030009 -0.428067,6.005996 -0.601644,-0.02401 0.645853,-5.921777 0.05196,-6.021007 -0.593891,-0.09923 -1.331479,5.883732 -1.908249,5.71085 -0.576771,-0.172882 2.098248,-5.575116 1.547694,-5.818923 -0.550555,-0.243807 -2.752873,5.367758 -3.268529,5.056871 -0.515656,-0.310887 3.418803,-4.878151 2.946178,-5.251215 -0.472626,-0.373065 -4.001293,4.514508 -4.423435,4.08515 -0.422141,-0.429359 4.524542,-3.874673 4.159542,-4.353554 -0.364999,-0.478881 -4.998297,3.377596 -5.300399,2.856744 -0.302102,-0.520852 5.345987,-2.627735 5.111547,-3.182343 -0.23444,-0.554608 -5.68124,2.028457 -5.844321,1.448839 -0.16308,-0.579618 5.831524,-1.215687 5.742375,-1.811174 -0.08915,-0.595487 -6.00721,0.551862 -6.021022,-0.0501 -0.01381,-0.601965 5.950645,0.272747 6.012388,-0.326202 0.06174,-0.598949 -5.955725,-0.959408 -5.819401,-1.545896 0.136325,-0.586488 5.695865,1.744044 5.904622,1.179267 0.208756,-0.564777 -5.530021,-2.410396 -5.252125,-2.944556 0.277895,-0.534159 5.083193,3.105756 5.425845,2.610638 0.342652,-0.495118 -4.756844,-3.709929 -4.354839,-4.158197 0.402005,-0.448268 4.151125,4.272321 4.606143,3.877972 0.455018,-0.394349 -3.684777,-4.776353 -3.183922,-5.110564 0.500855,-0.33421 2.958227,5.170441 3.49702,4.90164 0.538793,-0.268801 -2.381182,-5.542662 -1.812947,-5.741815 0.568234,-0.199153 1.579452,5.743683 2.168166,5.617319 0.588714,-0.126364 -0.927968,-5.960705 -0.328059,-6.012287 0.59991,-0.05158 0.101435,5.956028 0.703079,5.980042 0.601644,0.02401 0.583552,-6.004215 1.177443,-5.904986 0.59389,0.09923 -1.382956,5.794135 -0.806186,5.967017 0.576771,0.172882 2.058407,-5.670458 2.608961,-5.426651 0.550555,0.243807 -2.78045,5.268174 -2.264794,5.579061 0.515656,0.310888 3.403924,-4.980405 3.876549,-4.60734 0.472626,0.373064 -4.003239,4.411195 -3.581098,4.840553 0.422142,0.429359 4.53556,-3.977415 4.90056,-3.498534 0.364999,0.478882 -4.97449,3.277044 -4.672388,3.797896 0.302102,0.520852 5.382209,-2.724509 5.616649,-2.169901 0.23444,0.554608 -5.633175,1.936984 -5.470094,2.516602 0.16308,0.579618 5.890675,-1.300413 5.979824,-0.704926 0.08915,0.595487 -5.937907,0.475217 -5.924095,1.077181 0.01381,0.601965 6.029009,0.205393 5.967265,0.804342 -0.06174,0.59895 -5.869538,-1.01641 -6.005862,-0.429922 -0.136325,0.586488 5.788517,1.698294 5.57976,2.263071 -0.208756,0.564777 -5.432364,-2.444173 -5.71026,-1.910013 -0.277895,0.534159 5.184312,3.084484 4.84166,3.579602 -0.342652,0.495118 -4.653856,-3.718359 -5.055861,-3.270091 -0.402005,0.448269 4.254357,4.276866 3.799339,4.671215 z"
       inkscape:transform-center-x="0.01346547"
       inkscape:transform-center-y="0.0081319484"
       transform="matrix(0.72484875,0,0,0.7611056,18.878724,201.09417)" /><path
       sodipodi:type="star"
       style="display:inline;fill:url(#radialGradient45-6);fill-opacity:0.801653"
       id="path44-7-2"
       inkscape:flatsided="false"
       sodipodi:sides="25"
       sodipodi:cx="46.903072"
       sodipodi:cy="-38.581558"
       sodipodi:r1="7.50806"
       sodipodi:r2="1.5016118"
       sodipodi:arg1="0.85670563"
       sodipodi:arg2="0.98236933"
       inkscape:rounded="0.1"
       inkscape:randomized="0"
       d="m 51.82033,-32.907799 c -0.455018,0.394349 -3.582928,-4.758907 -4.083783,-4.424696 -0.500855,0.33421 3.057085,5.200515 2.518292,5.469316 -0.538793,0.268802 -2.286872,-5.500434 -2.855107,-5.301281 -0.568234,0.199153 1.667726,5.797398 1.079012,5.923762 -0.588714,0.126364 -0.847123,-5.896351 -1.447033,-5.844769 -0.59991,0.05158 0.173577,6.030009 -0.428067,6.005996 -0.601644,-0.02401 0.645853,-5.921777 0.05196,-6.021007 -0.593891,-0.09923 -1.331479,5.883732 -1.908249,5.71085 -0.576771,-0.172882 2.098248,-5.575116 1.547694,-5.818923 -0.550555,-0.243807 -2.752873,5.367758 -3.268529,5.056871 -0.515656,-0.310887 3.418803,-4.878151 2.946178,-5.251215 -0.472626,-0.373065 -4.001293,4.514508 -4.423435,4.08515 -0.422141,-0.429359 4.524542,-3.874673 4.159542,-4.353554 -0.364999,-0.478881 -4.998297,3.377596 -5.300399,2.856744 -0.302102,-0.520852 5.345987,-2.627735 5.111547,-3.182343 -0.23444,-0.554608 -5.68124,2.028457 -5.844321,1.448839 -0.16308,-0.579618 5.831524,-1.215687 5.742375,-1.811174 -0.08915,-0.595487 -6.00721,0.551862 -6.021022,-0.0501 -0.01381,-0.601965 5.950645,0.272747 6.012388,-0.326202 0.06174,-0.598949 -5.955725,-0.959408 -5.819401,-1.545896 0.136325,-0.586488 5.695865,1.744044 5.904622,1.179267 0.208756,-0.564777 -5.530021,-2.410396 -5.252125,-2.944556 0.277895,-0.534159 5.083193,3.105756 5.425845,2.610638 0.342652,-0.495118 -4.756844,-3.709929 -4.354839,-4.158197 0.402005,-0.448268 4.151125,4.272321 4.606143,3.877972 0.455018,-0.394349 -3.684777,-4.776353 -3.183922,-5.110564 0.500855,-0.33421 2.958227,5.170441 3.49702,4.90164 0.538793,-0.268801 -2.381182,-5.542662 -1.812947,-5.741815 0.568234,-0.199153 1.579452,5.743683 2.168166,5.617319 0.588714,-0.126364 -0.927968,-5.960705 -0.328059,-6.012287 0.59991,-0.05158 0.101435,5.956028 0.703079,5.980042 0.601644,0.02401 0.583552,-6.004215 1.177443,-5.904986 0.59389,0.09923 -1.382956,5.794135 -0.806186,5.967017 0.576771,0.172882 2.058407,-5.670458 2.608961,-5.426651 0.550555,0.243807 -2.78045,5.268174 -2.264794,5.579061 0.515656,0.310888 3.403924,-4.980405 3.876549,-4.60734 0.472626,0.373064 -4.003239,4.411195 -3.581098,4.840553 0.422142,0.429359 4.53556,-3.977415 4.90056,-3.498534 0.364999,0.478882 -4.97449,3.277044 -4.672388,3.797896 0.302102,0.520852 5.382209,-2.724509 5.616649,-2.169901 0.23444,0.554608 -5.633175,1.936984 -5.470094,2.516602 0.16308,0.579618 5.890675,-1.300413 5.979824,-0.704926 0.08915,0.595487 -5.937907,0.475217 -5.924095,1.077181 0.01381,0.601965 6.029009,0.205393 5.967265,0.804342 -0.06174,0.59895 -5.869538,-1.01641 -6.005862,-0.429922 -0.136325,0.586488 5.788517,1.698294 5.57976,2.263071 -0.208756,0.564777 -5.432364,-2.444173 -5.71026,-1.910013 -0.277895,0.534159 5.184312,3.084484 4.84166,3.579602 -0.342652,0.495118 -4.653856,-3.718359 -5.055861,-3.270091 -0.402005,0.448269 4.254357,4.276866 3.799339,4.671215 z"
       inkscape:transform-center-x="0.01346547"
       inkscape:transform-center-y="0.0081319484"
       transform="matrix(0.72484875,0,0,0.7611056,-12.55684,105.05831)" /><path
       sodipodi:type="star"
       style="display:inline;fill:url(#radialGradient45-6-1);fill-opacity:0.801653"
       id="path44-7-2-6"
       inkscape:flatsided="false"
       sodipodi:sides="25"
       sodipodi:cx="46.903072"
       sodipodi:cy="-38.581558"
       sodipodi:r1="7.50806"
       sodipodi:r2="1.5016118"
       sodipodi:arg1="0.85670563"
       sodipodi:arg2="0.98236933"
       inkscape:rounded="0.1"
       inkscape:randomized="0"
       d="m 51.82033,-32.907799 c -0.455018,0.394349 -3.582928,-4.758907 -4.083783,-4.424696 -0.500855,0.33421 3.057085,5.200515 2.518292,5.469316 -0.538793,0.268802 -2.286872,-5.500434 -2.855107,-5.301281 -0.568234,0.199153 1.667726,5.797398 1.079012,5.923762 -0.588714,0.126364 -0.847123,-5.896351 -1.447033,-5.844769 -0.59991,0.05158 0.173577,6.030009 -0.428067,6.005996 -0.601644,-0.02401 0.645853,-5.921777 0.05196,-6.021007 -0.593891,-0.09923 -1.331479,5.883732 -1.908249,5.71085 -0.576771,-0.172882 2.098248,-5.575116 1.547694,-5.818923 -0.550555,-0.243807 -2.752873,5.367758 -3.268529,5.056871 -0.515656,-0.310887 3.418803,-4.878151 2.946178,-5.251215 -0.472626,-0.373065 -4.001293,4.514508 -4.423435,4.08515 -0.422141,-0.429359 4.524542,-3.874673 4.159542,-4.353554 -0.364999,-0.478881 -4.998297,3.377596 -5.300399,2.856744 -0.302102,-0.520852 5.345987,-2.627735 5.111547,-3.182343 -0.23444,-0.554608 -5.68124,2.028457 -5.844321,1.448839 -0.16308,-0.579618 5.831524,-1.215687 5.742375,-1.811174 -0.08915,-0.595487 -6.00721,0.551862 -6.021022,-0.0501 -0.01381,-0.601965 5.950645,0.272747 6.012388,-0.326202 0.06174,-0.598949 -5.955725,-0.959408 -5.819401,-1.545896 0.136325,-0.586488 5.695865,1.744044 5.904622,1.179267 0.208756,-0.564777 -5.530021,-2.410396 -5.252125,-2.944556 0.277895,-0.534159 5.083193,3.105756 5.425845,2.610638 0.342652,-0.495118 -4.756844,-3.709929 -4.354839,-4.158197 0.402005,-0.448268 4.151125,4.272321 4.606143,3.877972 0.455018,-0.394349 -3.684777,-4.776353 -3.183922,-5.110564 0.500855,-0.33421 2.958227,5.170441 3.49702,4.90164 0.538793,-0.268801 -2.381182,-5.542662 -1.812947,-5.741815 0.568234,-0.199153 1.579452,5.743683 2.168166,5.617319 0.588714,-0.126364 -0.927968,-5.960705 -0.328059,-6.012287 0.59991,-0.05158 0.101435,5.956028 0.703079,5.980042 0.601644,0.02401 0.583552,-6.004215 1.177443,-5.904986 0.59389,0.09923 -1.382956,5.794135 -0.806186,5.967017 0.576771,0.172882 2.058407,-5.670458 2.608961,-5.426651 0.550555,0.243807 -2.78045,5.268174 -2.264794,5.579061 0.515656,0.310888 3.403924,-4.980405 3.876549,-4.60734 0.472626,0.373064 -4.003239,4.411195 -3.581098,4.840553 0.422142,0.429359 4.53556,-3.977415 4.90056,-3.498534 0.364999,0.478882 -4.97449,3.277044 -4.672388,3.797896 0.302102,0.520852 5.382209,-2.724509 5.616649,-2.169901 0.23444,0.554608 -5.633175,1.936984 -5.470094,2.516602 0.16308,0.579618 5.890675,-1.300413 5.979824,-0.704926 0.08915,0.595487 -5.937907,0.475217 -5.924095,1.077181 0.01381,0.601965 6.029009,0.205393 5.967265,0.804342 -0.06174,0.59895 -5.869538,-1.01641 -6.005862,-0.429922 -0.136325,0.586488 5.788517,1.698294 5.57976,2.263071 -0.208756,0.564777 -5.432364,-2.444173 -5.71026,-1.910013 -0.277895,0.534159 5.184312,3.084484 4.84166,3.579602 -0.342652,0.495118 -4.653856,-3.718359 -5.055861,-3.270091 -0.402005,0.448269 4.254357,4.276866 3.799339,4.671215 z"
       inkscape:transform-center-x="0.01346547"
       inkscape:transform-center-y="0.0081319484"
       transform="matrix(0.72484875,0,0,0.7611056,484.91604,99.914868)" /><path
       sodipodi:type="star"
       style="display:inline;fill:url(#radialGradient45-6-1-2);fill-opacity:0.801653"
       id="path44-7-2-6-1"
       inkscape:flatsided="false"
       sodipodi:sides="25"
       sodipodi:cx="46.903072"
       sodipodi:cy="-38.581558"
       sodipodi:r1="7.50806"
       sodipodi:r2="1.5016118"
       sodipodi:arg1="0.85670563"
       sodipodi:arg2="0.98236933"
       inkscape:rounded="0.1"
       inkscape:randomized="0"
       d="m 51.82033,-32.907799 c -0.455018,0.394349 -3.582928,-4.758907 -4.083783,-4.424696 -0.500855,0.33421 3.057085,5.200515 2.518292,5.469316 -0.538793,0.268802 -2.286872,-5.500434 -2.855107,-5.301281 -0.568234,0.199153 1.667726,5.797398 1.079012,5.923762 -0.588714,0.126364 -0.847123,-5.896351 -1.447033,-5.844769 -0.59991,0.05158 0.173577,6.030009 -0.428067,6.005996 -0.601644,-0.02401 0.645853,-5.921777 0.05196,-6.021007 -0.593891,-0.09923 -1.331479,5.883732 -1.908249,5.71085 -0.576771,-0.172882 2.098248,-5.575116 1.547694,-5.818923 -0.550555,-0.243807 -2.752873,5.367758 -3.268529,5.056871 -0.515656,-0.310887 3.418803,-4.878151 2.946178,-5.251215 -0.472626,-0.373065 -4.001293,4.514508 -4.423435,4.08515 -0.422141,-0.429359 4.524542,-3.874673 4.159542,-4.353554 -0.364999,-0.478881 -4.998297,3.377596 -5.300399,2.856744 -0.302102,-0.520852 5.345987,-2.627735 5.111547,-3.182343 -0.23444,-0.554608 -5.68124,2.028457 -5.844321,1.448839 -0.16308,-0.579618 5.831524,-1.215687 5.742375,-1.811174 -0.08915,-0.595487 -6.00721,0.551862 -6.021022,-0.0501 -0.01381,-0.601965 5.950645,0.272747 6.012388,-0.326202 0.06174,-0.598949 -5.955725,-0.959408 -5.819401,-1.545896 0.136325,-0.586488 5.695865,1.744044 5.904622,1.179267 0.208756,-0.564777 -5.530021,-2.410396 -5.252125,-2.944556 0.277895,-0.534159 5.083193,3.105756 5.425845,2.610638 0.342652,-0.495118 -4.756844,-3.709929 -4.354839,-4.158197 0.402005,-0.448268 4.151125,4.272321 4.606143,3.877972 0.455018,-0.394349 -3.684777,-4.776353 -3.183922,-5.110564 0.500855,-0.33421 2.958227,5.170441 3.49702,4.90164 0.538793,-0.268801 -2.381182,-5.542662 -1.812947,-5.741815 0.568234,-0.199153 1.579452,5.743683 2.168166,5.617319 0.588714,-0.126364 -0.927968,-5.960705 -0.328059,-6.012287 0.59991,-0.05158 0.101435,5.956028 0.703079,5.980042 0.601644,0.02401 0.583552,-6.004215 1.177443,-5.904986 0.59389,0.09923 -1.382956,5.794135 -0.806186,5.967017 0.576771,0.172882 2.058407,-5.670458 2.608961,-5.426651 0.550555,0.243807 -2.78045,5.268174 -2.264794,5.579061 0.515656,0.310888 3.403924,-4.980405 3.876549,-4.60734 0.472626,0.373064 -4.003239,4.411195 -3.581098,4.840553 0.422142,0.429359 4.53556,-3.977415 4.90056,-3.498534 0.364999,0.478882 -4.97449,3.277044 -4.672388,3.797896 0.302102,0.520852 5.382209,-2.724509 5.616649,-2.169901 0.23444,0.554608 -5.633175,1.936984 -5.470094,2.516602 0.16308,0.579618 5.890675,-1.300413 5.979824,-0.704926 0.08915,0.595487 -5.937907,0.475217 -5.924095,1.077181 0.01381,0.601965 6.029009,0.205393 5.967265,0.804342 -0.06174,0.59895 -5.869538,-1.01641 -6.005862,-0.429922 -0.136325,0.586488 5.788517,1.698294 5.57976,2.263071 -0.208756,0.564777 -5.432364,-2.444173 -5.71026,-1.910013 -0.277895,0.534159 5.184312,3.084484 4.84166,3.579602 -0.342652,0.495118 -4.653856,-3.718359 -5.055861,-3.270091 -0.402005,0.448269 4.254357,4.276866 3.799339,4.671215 z"
       inkscape:transform-center-x="0.01346547"
       inkscape:transform-center-y="0.0081319484"
       transform="matrix(0.72484875,0,0,0.7611056,335.44316,204.05831)" /></g><g
     id="g74"
     inkscape:label="rock"
     style="display:inline;fill:#1f241c"
     transform="translate(-40)"><path
       sodipodi:type="star"
       style="display:inline;opacity:1;fill:#1f241c;fill-opacity:0.8"
       id="path67"
       inkscape:flatsided="false"
       sodipodi:sides="2"
       sodipodi:cx="122.45178"
       sodipodi:cy="403.49564"
       sodipodi:r1="149.27687"
       sodipodi:r2="74.638443"
       sodipodi:arg1="-0.022788077"
       sodipodi:arg2="1.5480082"
       inkscape:rounded="0.3"
       inkscape:randomized="0.1"
       d="m 263.72952,401.28985 c -0.16219,47.89259 -92.65485,68.89377 -142.19349,74.17502 -49.538637,5.28124 -134.126047,-12.29482 -142.125439,-60.02621 -7.999392,-47.7314 84.3971,-70.39458 133.944359,-73.44538 49.54725,-3.05081 150.53675,11.40398 150.37457,59.29657 z"
       inkscape:transform-center-x="1.1253816"
       inkscape:transform-center-y="5.4911507" /><path
       sodipodi:type="star"
       style="display:inline;opacity:1;fill:#1f241c;fill-opacity:1"
       id="path66"
       inkscape:flatsided="false"
       sodipodi:sides="2"
       sodipodi:cx="69.304306"
       sodipodi:cy="410.72369"
       sodipodi:r1="132.56136"
       sodipodi:r2="66.280685"
       sodipodi:arg1="-0.070621907"
       sodipodi:arg2="1.5001744"
       inkscape:rounded="0.3"
       inkscape:randomized="0.1"
       d="m 210.22438,394.07578 c 3.2303,44.63223 -85.71111,82.84045 -128.82547,87.55419 -43.114359,4.71374 -141.245411,-11.01392 -141.410848,-55.39717 -0.165437,-44.38325 73.158167,-80.33514 118.64153,-84.86816 45.483368,-4.53302 148.364488,8.07892 151.594788,52.71114 z"
       inkscape:transform-center-x="-5.8446072"
       inkscape:transform-center-y="0.7415592"
       transform="translate(0,2)" /><path
       sodipodi:type="star"
       style="display:inline;opacity:1;fill:#1f241c;fill-opacity:0.8"
       id="path70"
       inkscape:flatsided="false"
       sodipodi:sides="2"
       sodipodi:cx="393.71649"
       sodipodi:cy="406.89706"
       sodipodi:r1="123.26548"
       sodipodi:r2="61.632748"
       sodipodi:arg1="-0.14189705"
       sodipodi:arg2="1.4288993"
       inkscape:rounded="0.3"
       inkscape:randomized="0.1"
       d="m 525.83337,396.70443 c 4.17215,39.72685 -84.75684,58.27864 -122.38524,69.7716 -37.62839,11.49297 -133.31651,-7.63973 -138.12854,-48.77448 -4.81203,-41.13475 78.81726,-69.32715 118.70661,-74.18603 39.88935,-4.85888 137.63502,13.46206 141.80717,53.18891 z"
       inkscape:transform-center-x="-1.831381"
       inkscape:transform-center-y="-0.6372035" /><path
       sodipodi:type="star"
       style="display:inline;fill:#3e4837;fill-opacity:1"
       id="path36"
       inkscape:flatsided="false"
       sodipodi:sides="2"
       sodipodi:cx="476.62006"
       sodipodi:cy="416.17328"
       sodipodi:r1="128.04327"
       sodipodi:r2="64.021645"
       sodipodi:arg1="-0.16789592"
       sodipodi:arg2="1.4029004"
       inkscape:rounded="0.3"
       inkscape:randomized="0.1"
       d="m 595.89314,394.63125 c 6.14484,42.28281 -66.21062,65.3215 -106.79576,73.20145 -40.58513,7.87996 -122.30336,22.28675 -133.33642,-20.91423 -11.03306,-43.20098 57.87204,-86.53328 100.2398,-99.21472 42.36777,-12.68143 133.74754,4.64469 139.89238,46.9275 z"
       inkscape:transform-center-x="1.1990524"
       inkscape:transform-center-y="-6.0501861"
       transform="translate(40)" /><path
       sodipodi:type="star"
       style="display:inline;fill:#1f241c;fill-opacity:1"
       id="path37"
       inkscape:flatsided="false"
       sodipodi:sides="2"
       sodipodi:cx="644.58716"
       sodipodi:cy="412.4288"
       sodipodi:r1="143.13374"
       sodipodi:r2="71.566879"
       sodipodi:arg1="-3.032999"
       sodipodi:arg2="-1.4622027"
       inkscape:rounded="0.3"
       inkscape:randomized="0.1"
       d="m 494.2587,389.48065 c -0.86164,-48.13196 103.66934,-52.86597 149.82922,-43.29059 46.15989,9.57539 139.17706,43.69056 129.60668,92.84202 -9.57038,49.15146 -96.6093,54.25728 -144.48582,50.68811 C 581.33225,486.15102 495.12033,437.61261 494.2587,389.48065 Z"
       inkscape:transform-center-x="10.27035"
       inkscape:transform-center-y="3.9494149"
       transform="translate(40)" /><path
       sodipodi:type="star"
       style="display:inline;opacity:1;fill:#1f241c;fill-opacity:0.8"
       id="path72"
       inkscape:flatsided="false"
       sodipodi:sides="2"
       sodipodi:cx="255.10788"
       sodipodi:cy="375.00858"
       sodipodi:r1="90.163185"
       sodipodi:r2="45.081596"
       sodipodi:arg1="0.023580534"
       sodipodi:arg2="1.5943769"
       inkscape:rounded="0.3"
       inkscape:randomized="0.1"
       d="m 337.14181,380.30558 c -1.22823,30.59448 -44.67401,35.79484 -75.97754,33.72962 -31.30353,-2.06522 -91.78113,-14.2805 -88.48926,-44.22016 3.29188,-29.93966 43.91264,-42.17397 75.00571,-40.05616 31.09307,2.11781 90.68933,19.95223 89.46109,50.5467 z"
       inkscape:transform-center-x="0.25466507"
       inkscape:transform-center-y="-2.6344405"
       transform="matrix(1,0,0,0.86980399,33.164025,56.083521)" /><path
       sodipodi:type="star"
       style="display:inline;opacity:1;fill:#1f241c;fill-opacity:0.8"
       id="path73"
       inkscape:flatsided="false"
       sodipodi:sides="2"
       sodipodi:cx="-5.5273376"
       sodipodi:cy="347.37189"
       sodipodi:r1="56.015724"
       sodipodi:r2="28.007866"
       sodipodi:arg1="-0.10646613"
       sodipodi:arg2="1.4643302"
       inkscape:rounded="0.3"
       inkscape:randomized="0.1"
       d="m 55.543221,343.465 c 4.318504,19.12844 -42.593603,31.28803 -60.22673,34.67268 -17.633126,3.38465 -58.974961,-9.71379 -60.082653,-27.91521 -1.107692,-18.20141 36.430926,-31.54526 55.367793,-35.20037 18.9368665,-3.65511 60.623087,9.31447 64.94159,28.4429 z"
       inkscape:transform-center-x="-1.0435613"
       inkscape:transform-center-y="-0.83355269"
       transform="translate(22.10935,24.235249)" /><path
       sodipodi:type="star"
       style="display:inline;fill:#1f241c;fill-opacity:0.8"
       id="path73-2"
       inkscape:flatsided="false"
       sodipodi:sides="2"
       sodipodi:cx="-5.5273376"
       sodipodi:cy="347.37189"
       sodipodi:r1="56.015724"
       sodipodi:r2="28.007866"
       sodipodi:arg1="-0.10646613"
       sodipodi:arg2="1.4643302"
       inkscape:rounded="0.3"
       inkscape:randomized="0.1"
       d="m 55.543221,343.465 c 4.318504,19.12844 -42.593603,31.28803 -60.22673,34.67268 -17.633126,3.38465 -58.974961,-9.71379 -60.082653,-27.91521 -1.107692,-18.20141 36.430926,-31.54526 55.367793,-35.20037 18.9368665,-3.65511 60.623087,9.31447 64.94159,28.4429 z"
       inkscape:transform-center-x="-2.2700576"
       inkscape:transform-center-y="-0.83355269"
       transform="matrix(2.1752961,0,0,1,563.93775,24.595289)" /><path
       sodipodi:type="star"
       style="display:inline;opacity:1;fill:#3e4837;fill-opacity:1"
       id="path74"
       inkscape:flatsided="false"
       sodipodi:sides="2"
       sodipodi:cx="-36.990643"
       sodipodi:cy="338.01794"
       sodipodi:r1="69.632202"
       sodipodi:r2="34.816105"
       sodipodi:arg1="-0.18422267"
       sodipodi:arg2="1.3865737"
       inkscape:rounded="0.3"
       inkscape:randomized="0.1"
       d="m 34.576392,318.56127 c 7.050042,22.77116 -39.1693107,49.52267 -61.806597,52.34849 -22.637285,2.82583 -70.801169,-1.27628 -71.680593,-23.70923 -0.879425,-22.43294 34.680372,-38.5721 57.550517,-42.25098 22.870144,-3.67887 68.886632,-9.15943 75.936673,13.61172 z"
       inkscape:transform-center-x="-5.7527972"
       inkscape:transform-center-y="0.54885975"
       transform="rotate(13.284002,-127.29615,1024.4317)" /><path
       sodipodi:type="star"
       style="display:inline;opacity:1;fill:#1f241c;fill-opacity:1"
       id="path68"
       inkscape:flatsided="false"
       sodipodi:sides="2"
       sodipodi:cx="212.5899"
       sodipodi:cy="417.95175"
       sodipodi:r1="134.93147"
       sodipodi:r2="67.465736"
       sodipodi:arg1="-0.1454621"
       sodipodi:arg2="1.4253342"
       inkscape:rounded="0.3"
       inkscape:randomized="0.1"
       d="m 350.77648,407.39432 c 8.89802,44.59213 -82.97461,71.79024 -125.1531,82.60277 C 183.4449,500.80961 70.949831,475.07714 69.918704,428.97227 68.887578,382.86741 159.50222,357.97375 205.7661,348.48728 c 46.26388,-9.48648 136.11237,14.3149 145.01038,58.90704 z"
       inkscape:transform-center-x="1.9452213"
       inkscape:transform-center-y="1.4849936" /><path
       sodipodi:type="star"
       style="display:inline;opacity:1;fill:#3e4837;fill-opacity:1"
       id="path69"
       inkscape:flatsided="false"
       sodipodi:sides="2"
       sodipodi:cx="317.60931"
       sodipodi:cy="410.72369"
       sodipodi:r1="118.88623"
       sodipodi:r2="59.443119"
       sodipodi:arg1="-0.10749767"
       sodipodi:arg2="1.4632987"
       inkscape:rounded="0.3"
       inkscape:randomized="0.1"
       d="m 432.22791,389.96414 c 1.48163,38.65837 -71.13634,64.6365 -109.46552,72.35472 -38.32918,7.71822 -125.0912,0.19533 -124.58479,-38.54152 0.50641,-38.73684 71.51585,-66.98026 109.46552,-72.35472 37.94967,-5.37446 123.10316,-0.11685 124.58479,38.54152 z"
       inkscape:transform-center-x="2.3964994"
       inkscape:transform-center-y="-3.3807787" /><path
       sodipodi:type="star"
       style="display:inline;opacity:1;fill:#1f241c;fill-opacity:1"
       id="path71"
       inkscape:flatsided="false"
       sodipodi:sides="2"
       sodipodi:cx="459.19418"
       sodipodi:cy="388.61435"
       sodipodi:r1="88.20816"
       sodipodi:r2="44.104084"
       sodipodi:arg1="-0.33394507"
       sodipodi:arg2="1.2368513"
       inkscape:rounded="0.3"
       inkscape:randomized="0.1"
       d="m 546.18402,362.62703 c 6.47224,28.91457 -44.16329,48.19803 -70.32879,60.05509 -26.1655,11.85706 -90.34451,15.32639 -98.26387,-11.71751 -7.91936,-27.0439 41.1308,-63.32051 70.61959,-69.00051 29.48879,-5.68 91.50084,-8.25163 97.97307,20.66293 z"
       inkscape:transform-center-x="-2.5498232"
       inkscape:transform-center-y="-3.6454906" /></g><rect
     style="display:inline;fill:url(#linearGradient36);fill-opacity:0.5;stroke-width:1.23027"
     id="rect34"
     width="142.30527"
     height="686.24176"
     x="-367.14954"
     y="-46.136024"
     transform="rotate(-90)" /><path
     d="M 464.01417,452.78628 V -118.3112 H 659.5438 v 571.09747 z"
     data-paper-data="{&quot;index&quot;:null}"
     fill="#050505"
     stroke="url(#color-1)"
     stroke-width="0"
     id="path34"
     style="display:none;mix-blend-mode:normal;stroke:url(#color-1)" /></svg>
